<svg width="255" height="255" viewBox="0 0 255 255" fill="none" xmlns="http://www.w3.org/2000/svg">
<g id="Vector" clip-path="url(#clip0_173_4261)">
<g id="Vector_2">
<path d="M127.5 0C57.375 0 0 57.375 0 127.5C0 197.625 57.375 255 127.5 255C197.625 255 255 197.625 255 127.5C255 57.375 197.625 0 127.5 0ZM127.5 229.5C71.2725 229.5 25.5 183.727 25.5 127.5C25.5 71.2725 71.2725 25.5 127.5 25.5C183.727 25.5 229.5 71.2725 229.5 127.5C229.5 183.727 183.727 229.5 127.5 229.5Z" fill="#DC1215"/>
<path d="M127.5 0C57.375 0 0 57.375 0 127.5C0 197.625 57.375 255 127.5 255C197.625 255 255 197.625 255 127.5C255 57.375 197.625 0 127.5 0ZM127.5 229.5C71.2725 229.5 25.5 183.727 25.5 127.5C25.5 71.2725 71.2725 25.5 127.5 25.5C183.727 25.5 229.5 71.2725 229.5 127.5C229.5 183.727 183.727 229.5 127.5 229.5Z" fill="#DC1215"/>
</g>
<path id="Vector_3" d="M168.925 68L127.419 110.038L85.9141 68L68 86.0892L109.631 128L68 169.911L85.9141 188L127.419 145.962L168.925 188L186.839 169.911L145.207 128L186.839 86.0892L168.925 68Z" fill="#DC1215"/>
</g>
<defs>
<clipPath id="clip0_173_4261">
<rect width="255" height="255" fill="white"/>
</clipPath>
</defs>
</svg>
